<svg width="4" height="7" viewBox="0 0 4 7" fill="none" xmlns="http://www.w3.org/2000/svg">
<path d="M2.424 4.272H1.56C1.53867 4.13333 1.528 4.024 1.528 3.944C1.528 3.49067 1.73867 3.104 2.16 2.784L2.544 2.496C2.77333 2.32533 2.888 2.11467 2.888 1.864C2.888 1.66667 2.81867 1.49867 2.68 1.36C2.54133 1.216 2.344 1.144 2.088 1.144C1.82133 1.144 1.61867 1.23467 1.48 1.416C1.34133 1.592 1.272 1.80267 1.272 2.048C1.272 2.15467 1.28267 2.24 1.304 2.304L0.296 2.264C0.269333 2.17333 0.256 2.05333 0.256 1.904C0.256 1.44533 0.418667 1.048 0.744 0.712C1.07467 0.376 1.52267 0.208 2.088 0.208C2.67467 0.208 3.136 0.365333 3.472 0.68C3.808 0.994667 3.976 1.368 3.976 1.8C3.976 2.37067 3.712 2.84267 3.184 3.216L2.856 3.448C2.568 3.656 2.424 3.91467 2.424 4.224V4.272ZM1.56 5.88C1.43733 5.75733 1.376 5.608 1.376 5.432C1.376 5.256 1.43733 5.10667 1.56 4.984C1.68267 4.856 1.832 4.792 2.008 4.792C2.184 4.792 2.33333 4.856 2.456 4.984C2.584 5.10667 2.648 5.256 2.648 5.432C2.648 5.608 2.584 5.75733 2.456 5.88C2.33333 6.00267 2.184 6.064 2.008 6.064C1.832 6.064 1.68267 6.00267 1.56 5.88Z" fill="#B0B3C2"/>
</svg>
