<svg width="4" height="7" fill="none" xmlns="http://www.w3.org/2000/svg"><path d="M2.424 4.272H1.56a2.29 2.29 0 01-.032-.328c0-.453.21-.84.632-1.16l.384-.288c.23-.17.344-.381.344-.632a.686.686 0 00-.208-.504c-.139-.144-.336-.216-.592-.216-.267 0-.47.09-.608.272a.99.99 0 00-.208.632c0 .107.01.192.032.256l-1.008-.04c-.027-.09-.04-.21-.04-.36 0-.459.163-.856.488-1.192.33-.336.779-.504 1.344-.504.587 0 1.048.157 1.384.472.336.315.504.688.504 1.12 0 .57-.264 1.043-.792 1.416l-.328.232c-.288.208-.432.467-.432.776v.048zM1.56 5.88a.61.61 0 01-.184-.448.61.61 0 01.184-.448.597.597 0 01.448-.192c.176 0 .325.064.448.192a.597.597 0 01.192.448.597.597 0 01-.192.448.61.61 0 01-.448.184.61.61 0 01-.448-.184z" fill="#B0B3C2"/></svg>